# xmcd
#
# Track frame offsets:
#	150
#	15031
#	23234
#	31847
#	48256
#	59192
#	73816
#	90655
#	99960
#	107611
#	117432
#	128164
#	144421
#	156841
#	173194
#	199277
#	211203
#	225111
#	233068
#	244777
#	259897
#
# Disc length: 3843 seconds
#
# Revision: 1
# Processed by: cddbd v1.5.2PL0 Copyright (c) Steve Scherf et al.
# Submitted via: audiograbber 1.83.01
#
DISCID=150f0115
DTITLE=Whiskey Daredevils - Live In Berlin 
DYEAR=2008
DGENRE=Alternative Country
TTITLE0=Jack Evans Wants His Lighter Back
TTITLE1=Wasted
TTITLE2=Lat´s Lynch The Landlord
TTITLE3=Devils Radio
TTITLE4=Dented Fender
TTITLE5=Jesus Walks Beside Me
TTITLE6=Skunk Weed
TTITLE7=Baby Won´t Chew Dance Wit Me
TTITLE8=The Shah Sleeps In Lee Harvey´s Grave
TTITLE9=Six Pack (To Go)
TTITLE10=Skulls
TTITLE11=Wichita Buzzcut
TTITLE12=AMC Hornet
TTITLE13=Jimmy Rogers
TTITLE14=Trucker Bomb
TTITLE15=LSD
TTITLE16=Straight Edge
TTITLE17=Ironic Trucker Hat
TTITLE18=Ear To The Ground
TTITLE19=Long Gone
TTITLE20=Blues Stop Knockin - Lif Of Bluegrass
EXTD=Wild At Heart May 24, 2008\nKnock Out Records
EXTT0=
EXTT1=
EXTT2=
EXTT3=
EXTT4=
EXTT5=
EXTT6=
EXTT7=
EXTT8=
EXTT9=
EXTT10=
EXTT11=
EXTT12=
EXTT13=
EXTT14=
EXTT15=
EXTT16=
EXTT17=
EXTT18=
EXTT19=
EXTT20=
PLAYORDER=
